<?xml version="1.0" standalone="yes"?>
<!DOCTYPE svg PUBLIC "-//W3C//DTD SVG 1.1//EN"
  "http://www.w3.org/Graphics/SVG/1.1/DTD/svg11.dtd">
<svg version="1.1" xmlns="http://www.w3.org/2000/svg" xmlns:xlink="http://www.w3.org/1999/xlink" width="17.6679cm" height="21.9765cm" viewBox="-235.061 -311.499 500.822 622.955" fill="#404040">
 <g transform="scale(1.0, -1.0)">
  <path d="M15.40 -308.62C152.05 -308.60 262.96 -170.28 262.93 0.06C262.90 170.41 151.94 308.69 15.30 308.66C-121.34 308.64 -232.26 170.32 -232.23 -0.02C-232.20 -170.37 -121.24 -308.65 15.40 -308.62zM14.00 -280.57C-110.22 -280.59 -211.09 -154.88 -211.11 -0.02C-211.14 154.84 -110.31 280.58 13.91 280.60C138.13 280.63 239.00 154.92 239.02 0.06C239.05 -154.80 138.22 -280.54 14.00 -280.57z" />
  <path d="M-125.82 218.14C-117.53 223.89 -103.94 231.50 -85.04 240.94C-66.14 250.39 -40.16 255.12 -7.09 255.12C25.98 255.12 54.33 252.76 77.95 248.03C101.57 243.31 122.26 235.71 140.00 225.23C157.74 214.75 172.13 201.32 183.16 184.93C194.20 168.54 201.84 154.59 206.09 143.08C210.34 131.57 214.02 119.31 217.15 106.29C220.28 93.28 222.80 79.72 224.73 65.61C226.66 51.50 227.96 37.04 228.62 22.22C229.28 7.41 229.61 0.00 229.61 0.00C229.61 0.00 229.28 -7.41 228.62 -22.22C227.96 -37.04 226.66 -51.50 224.73 -65.61C222.80 -79.72 220.28 -93.28 217.15 -106.29C214.02 -119.31 210.34 -131.57 206.09 -143.08C201.84 -154.59 194.20 -168.54 183.16 -184.93C172.13 -201.32 157.74 -214.75 140.00 -225.23C122.26 -235.71 101.57 -243.31 77.95 -248.03C54.33 -252.76 25.98 -255.12 -7.09 -255.12C-40.16 -255.12 -66.14 -250.39 -85.04 -240.94C-103.94 -231.50 -117.53 -223.89 -125.82 -218.14C-134.12 -212.39 -143.78 -201.32 -154.82 -184.93C-165.85 -168.54 -173.50 -154.59 -177.74 -143.08C-181.99 -131.57 -185.68 -119.31 -188.80 -106.29C-191.93 -93.28 -194.46 -79.72 -196.39 -65.61C-198.32 -51.50 -199.61 -37.04 -200.27 -22.22C-200.93 -7.41 -201.26 0.00 -201.26 0.00C-201.26 0.00 -200.93 7.41 -200.27 22.22C-199.61 37.04 -198.32 51.50 -196.39 65.61C-194.46 79.72 -191.93 93.28 -188.80 106.29C-185.68 119.31 -181.99 131.57 -177.74 143.08C-173.50 154.59 -165.85 168.54 -154.82 184.93C-143.78 201.32 -134.12 212.39 -125.82 218.14z" fill="url(#g2)" />
  <path transform="matrix(1 0 0 1 13.9551 0.019406)" d="M0.00 0.00L42.52 85.04H-42.52z" fill="#c0c0c0" />
 </g>
 <defs>
  <radialGradient id="g2" gradientUnits="userSpaceOnUse" gradientTransform="matrix(225.07 -0 -0.0174614 280.585 13.9551 0.019406)" cx="-0" cy="-0" r="2" fx="0" fy="0" xlink:href="#g1" />
  <linearGradient id="g1" spreadMethod="repeat">
   <stop offset="0" stop-color="#c0c0c0" />
   <stop offset="0.0555556" stop-color="#bdbdbd" />
   <stop offset="0.111111" stop-color="#b6b6b6" />
   <stop offset="0.166667" stop-color="#ababab" />
   <stop offset="0.222222" stop-color="#9c9c9c" />
   <stop offset="0.277778" stop-color="#8a8a8a" />
   <stop offset="0.333333" stop-color="#757575" />
   <stop offset="0.388889" stop-color="#606060" />
   <stop offset="0.444444" stop-color="#4d4d4d" />
   <stop offset="0.5" stop-color="#404040" />
   <stop offset="0.555556" stop-color="#4d4d4d" />
   <stop offset="0.611111" stop-color="#606060" />
   <stop offset="0.666667" stop-color="#757575" />
   <stop offset="0.722222" stop-color="#8a8a8a" />
   <stop offset="0.777778" stop-color="#9c9c9c" />
   <stop offset="0.833333" stop-color="#ababab" />
   <stop offset="0.888889" stop-color="#b6b6b6" />
   <stop offset="0.944444" stop-color="#bdbdbd" />
   <stop offset="1" stop-color="#c0c0c0" />
  </linearGradient>
 </defs>
</svg>
